PathFileType	4	(X/Y/Z)	/Users/itak/Documents/Research/Walk-IL/dataset/trc/00112_00007.trc
DataRate	CameraRate	NumFrames	NumMarkers	Units	OrigDataRate	OrigDataStartFrame	OrigNumFrames
100.000000	100.000000	4	53	mm	100.000000	280	560
Frame#	Time	RPSI			LPSI			L3			STRN			T10			C7			CLAV			RBAK			LBAK			LSHO			LUPA			LAEL			LAOL			LWTS			LWPS			LFRA			LIFD			LHPS			LHTS			RSHO			RUPA			RAEL			RAOL			RWTS			RWPS			RFRA			RIFD			RHTS			RHPS			RBHD			LFHD			RFHD			LBHD			LHIP			RHIP			RASI			LASI			LKNE			LTHI			LANK			LTIP			LTOE			LMT1			LMT5			LHEE			RKNE			RTHI			RANK			RTIP			RTOE			RMT1			RMT5			RHEE			
		X1	Y1	Z1	X2	Y2	Z2	X3	Y3	Z3	X4	Y4	Z4	X5	Y5	Z5	X6	Y6	Z6	X7	Y7	Z7	X8	Y8	Z8	X9	Y9	Z9	X10	Y10	Z10	X11	Y11	Z11	X12	Y12	Z12	X13	Y13	Z13	X14	Y14	Z14	X15	Y15	Z15	X16	Y16	Z16	X17	Y17	Z17	X18	Y18	Z18	X19	Y19	Z19	X20	Y20	Z20	X21	Y21	Z21	X22	Y22	Z22	X23	Y23	Z23	X24	Y24	Z24	X25	Y25	Z25	X26	Y26	Z26	X27	Y27	Z27	X28	Y28	Z28	X29	Y29	Z29	X30	Y30	Z30	X31	Y31	Z31	X32	Y32	Z32	X33	Y33	Z33	X34	Y34	Z34	X35	Y35	Z35	X36	Y36	Z36	X37	Y37	Z37	X38	Y38	Z38	X39	Y39	Z39	X40	Y40	Z40	X41	Y41	Z41	X42	Y42	Z42	X43	Y43	Z43	X44	Y44	Z44	X45	Y45	Z45	X46	Y46	Z46	X47	Y47	Z47	X48	Y48	Z48	X49	Y49	Z49	X50	Y50	Z50	X51	Y51	Z51	X52	Y52	Z52	X53	Y53	Z53	

281	2.8	-451.96240234375	1124.662475585938	-214.3458709716797	-450.86328125	1130.475830078125	-349.9285888671875	-458.3418579101562	1169.305908203125	-283.0859680175781	-217.8253784179688	1357.37060546875	-273.2169189453125	-472.8604125976562	1323.740478515625	-277.5076293945312	-413.6654052734375	1612.656494140625	-294.1727294921875	-240.9079437255859	1495.385864257812	-278.9142456054688	-482.18798828125	1435.172485351562	-203.1051940917969	-419.4529418945312	1591.6181640625	-395.44140625	-332.5386962890625	1569.948364257812	-460.7514343261719	-358.8756103515625	1440.042724609375	-530.2095336914062	-360.888916015625	1221.752563476562	-553.9971313476562	-428.7540893554688	1213.093994140625	-498.5048217773438	-273.5896301269531	960.2384643554688	-508.3564453125	-354.5771179199219	937.642822265625	-537.6890869140625	-349.9039916992188	1104.815795898438	-558.2777099609375	-270.2836303710938	766.6498413085938	-485.5874938964844	-328.5785217285156	861.4226684570312	-537.7445678710938	-261.3584289550781	870.1070556640625	-519.0139770507812	-362.2012329101562	1594.225708007812	-110.7145004272461	-382.1217346191406	1524.01708984375	-44.90303421020508	-400.0379028320312	1232.918823242188	-3.32639217376709	-408.9027099609375	1225.367553710938	-98.99040222167969	-258.8422241210938	989.3013305664062	-4.551554203033447	-331.7756958007812	974.72265625	29.97427749633789	-376.8351745605469	1160.43994140625	16.31636619567871	-236.5118865966797	793.3629760742188	-8.426369667053223	-229.5265960693359	881.4046020507812	8.06702709197998	-295.384765625	875.895751953125	40.80567169189453	-372.6473999023438	1773.217163085938	-209.5870666503906	-216.7614288330078	1846.591796875	-344.9380798339844	-214.1681213378906	1848.115844726562	-215.1619567871094	-385.6582641601562	1776.00732421875	-345.9631042480469	-350.9682006835938	1045.696044921875	-459.362548828125	-329.3816528320312	1027.09130859375	-94.80045318603516	-244.4708099365234	1099.388671875	-143.0861511230469	-248.7759552001953	1107.370727539062	-405.4945678710938	-172.1274566650391	558.4093627929688	-436.5639953613281	-240.3994750976562	699.2311401367188	-461.6715393066406	-440.4769897460938	105.4349060058594	-470.9497985839844	-339.885986328125	342.859375	-478.9671936035156	-219.6364135742188	44.83957672119141	-432.2879943847656	-292.4944458007812	61.26139831542969	-391.2076416015625	-326.1695861816406	68.10283660888672	-502.5758972167969	-502.0880737304688	122.0422821044922	-404.3005981445312	-305.6285705566406	534.7919311523438	-150.4711608886719	-299.719482421875	814.316162109375	-108.1279449462891	-430.6644592285156	32.38804244995117	-188.8740844726562	-333.2986145019531	399.3951721191406	-145.9684906005859	-193.5932159423828	39.41569137573242	-225.7369384765625	-253.3116149902344	29.23486137390137	-271.484130859375	-295.1269836425781	40.2843017578125	-158.5518035888672	-485.2229919433594	36.81765747070312	-242.0717010498047	
282	2.81	-458.3291015625	1124.548828125	-214.8242950439453	-457.0010681152344	1129.937866210938	-350.4686889648438	-464.6106872558594	1168.946166992188	-283.7486877441406	-224.7886657714844	1357.514404296875	-273.6791381835938	-479.859130859375	1323.44189453125	-278.8013305664062	-421.0892944335938	1612.637817382812	-295.6205139160156	-248.1437225341797	1495.453247070312	-279.5357360839844	-489.5411987304688	1434.95361328125	-204.5719146728516	-426.4048156738281	1591.238159179688	-396.8707885742188	-339.1575317382812	1569.61083984375	-461.7790222167969	-364.8436889648438	1439.5869140625	-531.217529296875	-365.9584350585938	1221.266845703125	-554.958251953125	-434.3011169433594	1212.451293945312	-500.0908203125	-278.0499572753906	960.1220092773438	-508.2679443359375	-358.6493835449219	937.1803588867188	-538.3469848632812	-354.4190979003906	1104.358520507812	-559.017822265625	-274.1123962402344	766.6135864257812	-485.22314453125	-332.3193664550781	861.0931396484375	-538.0545043945312	-265.3687744140625	870.0414428710938	-518.6898803710938	-370.1783447265625	1594.281372070312	-111.9115829467773	-390.2561645507812	1524.123779296875	-46.09236907958984	-408.2344970703125	1233.192504882812	-4.067418098449707	-416.5873413085938	1225.4462890625	-99.71715545654297	-268.1554870605469	988.9594116210938	-4.091994762420654	-341.3039245605469	974.8718872070312	30.19435691833496	-385.3717956542969	1160.742919921875	15.83142566680908	-246.9447937011719	792.8363647460938	-7.321757793426514	-239.5414428710938	880.8865966796875	8.910282135009766	-305.5076599121094	875.8766479492188	41.45846176147461	-380.0090942382812	1773.218994140625	-210.8721618652344	-223.8207550048828	1846.453491210938	-345.9674682617188	-221.2629241943359	1848.216186523438	-216.3334197998047	-392.7435607910156	1775.923828125	-347.2328796386719	-356.6130065917969	1044.962036132812	-459.5142211914062	-335.7440795898438	1027.648559570312	-94.82682800292969	-250.8381500244141	1100.083740234375	-143.3555755615234	-254.7561645507812	1107.037841796875	-405.6728515625	-182.0362701416016	555.8113403320312	-435.6129150390625	-248.5010833740234	697.5978393554688	-460.7423706054688	-464.7298583984375	111.460090637207	-472.1150512695312	-356.1036071777344	345.6784973144531	-479.0904846191406	-246.4405212402344	43.91706085205078	-430.8231506347656	-319.0311279296875	62.73897552490234	-390.5576477050781	-351.4382019042969	69.85467529296875	-502.3244018554688	-526.2355346679688	130.4146575927734	-406.0223388671875	-309.70556640625	535.3636474609375	-149.9804229736328	-305.1570129394531	814.9528198242188	-107.763786315918	-430.6490783691406	32.19278335571289	-188.7112579345703	-336.1674194335938	399.8514709472656	-145.6713562011719	-193.6181640625	39.41866683959961	-225.8024139404297	-253.3441162109375	29.20368003845215	-271.5122985839844	-295.1540832519531	40.31987380981445	-158.5549621582031	-485.211669921875	36.57551574707031	-241.9255218505859	
283	2.82	-464.7101440429688	1124.3994140625	-215.3448028564453	-463.1644897460938	1129.354370117188	-351.0467224121094	-470.9094543457031	1168.56103515625	-284.4595947265625	-231.8026428222656	1357.651977539062	-274.2162780761719	-486.9586486816406	1323.129028320312	-280.2331848144531	-428.5522766113281	1612.56640625	-297.1678771972656	-255.4395141601562	1495.51171875	-280.2218933105469	-496.9651184082031	1434.69873046875	-206.1809539794922	-433.3746948242188	1590.849487304688	-398.4162902832031	-345.7747497558594	1569.283203125	-462.8938903808594	-370.761962890625	1439.130126953125	-532.307373046875	-370.9430847167969	1220.770263671875	-555.9375	-439.6896362304688	1211.795776367188	-501.6575927734375	-282.4671630859375	959.980224609375	-508.2509155273438	-362.7239685058594	936.712158203125	-538.9486694335938	-358.8773498535156	1103.897338867188	-559.7664184570312	-277.9438171386719	766.5511474609375	-484.8771057128906	-336.0912170410156	860.7425537109375	-538.3200073242188	-269.3783874511719	869.9445190429688	-518.4249267578125	-378.2799377441406	1594.304077148438	-113.2174606323242	-398.5264892578125	1524.183349609375	-47.39475631713867	-416.5294189453125	1233.3974609375	-5.003933429718018	-424.2554626464844	1225.464477539062	-100.6455154418945	-277.4439086914062	988.636962890625	-3.751464366912842	-350.8419494628906	974.9869384765625	30.19952964782715	-393.99365234375	1160.98876953125	15.15164852142334	-257.2287902832031	792.3538818359375	-6.329725742340088	-249.4778442382812	880.4070434570312	9.654721260070801	-315.5890808105469	875.8538818359375	41.92710876464844	-387.3926391601562	1773.201293945312	-212.2231597900391	-230.9026947021484	1846.282836914062	-347.0547790527344	-228.3376770019531	1848.308959960938	-217.5882263183594	-399.85107421875	1775.82470703125	-348.5664367675781	-362.2984008789062	1044.18017578125	-459.6824035644531	-342.0547485351562	1028.182739257812	-94.89967346191406	-257.1929626464844	1100.83837890625	-143.6910095214844	-260.7455139160156	1106.67724609375	-405.9312744140625	-192.3654327392578	553.158935546875	-434.7157287597656	-256.8727722167969	695.9064331054688	-459.8373107910156	-488.8265075683594	117.6027603149414	-473.3443908691406	-372.4500122070312	348.5167541503906	-479.2398376464844	-273.3050842285156	43.20634841918945	-429.6514282226562	-345.4448852539062	64.47880554199219	-390.0985107421875	-376.7704467773438	71.66506958007812	-502.2154235839844	-550.0418701171875	138.9806976318359	-407.7423400878906	-313.6855773925781	535.91455078125	-149.5767211914062	-310.5018310546875	815.5691528320312	-107.4720306396484	-430.6165466308594	32.02857971191406	-188.5531616210938	-338.9449768066406	400.3016357421875	-145.4477691650391	-193.6276702880859	39.41543579101562	-225.8721771240234	-253.3661651611328	29.16712188720703	-271.5430603027344	-295.1677551269531	40.35857009887695	-158.5609588623047	-485.1897888183594	36.37386322021484	-241.7811126708984	
284	2.83	-471.1078186035156	1124.221435546875	-215.8995361328125	-469.3555603027344	1128.735717773438	-351.6514587402344	-477.2341613769531	1168.154418945312	-285.2063598632812	-238.8724060058594	1357.785278320312	-274.8272705078125	-494.1522216796875	1322.803466796875	-281.7750549316406	-436.047607421875	1612.434814453125	-298.8047180175781	-262.7969360351562	1495.56494140625	-280.9751281738281	-504.4559936523438	1434.410766601562	-207.9210510253906	-440.3699035644531	1590.452514648438	-400.06787109375	-352.4004211425781	1568.968505859375	-464.0880737304688	-376.6448974609375	1438.678344726562	-533.4736938476562	-375.8436584472656	1220.272705078125	-556.9308471679688	-444.9429626464844	1211.1328125	-503.2139892578125	-286.8431701660156	959.824951171875	-508.2792053222656	-366.7795104980469	936.2514038085938	-539.511474609375	-363.28466796875	1103.440185546875	-560.525146484375	-281.7787475585938	766.4730834960938	-484.5498352050781	-339.8747253417969	860.3840942382812	-538.5609130859375	-273.3713684082031	869.8317260742188	-518.2001342773438	-386.49658203125	1594.2978515625	-114.6275787353516	-406.9215698242188	1524.2021484375	-48.80340194702148	-424.9331359863281	1233.540405273438	-6.131289958953857	-431.9282836914062	1225.435424804688	-101.7682189941406	-286.7033996582031	988.340576171875	-3.539511680603027	-360.37939453125	975.070068359375	29.98397636413574	-402.7012939453125	1161.18115234375	14.28107261657715	-267.3415832519531	791.9284057617188	-5.47628927230835	-259.3157043457031	879.97998046875	10.28463363647461	-325.6136474609375	875.831298828125	42.19589996337891	-394.8112487792969	1773.166381835938	-213.6371002197266	-238.0174255371094	1846.084106445312	-348.2012329101562	-235.433837890625	1848.378662109375	-218.9062194824219	-406.9907836914062	1775.7138671875	-349.9612426757812	-368.0517883300781	1043.363159179688	-459.8592224121094	-348.3347778320312	1028.681518554688	-95.02729797363281	-263.5621337890625	1101.621337890625	-144.0688629150391	-266.7435302734375	1106.295532226562	-406.2721862792969	-203.1130981445312	550.4841918945312	-433.8882141113281	-265.5219116210938	694.1826782226562	-458.9657287597656	-512.6989135742188	123.7719039916992	-474.6175231933594	-388.8895568847656	351.3433837890625	-479.4187927246094	-300.1393737792969	42.69847106933594	-428.727783203125	-371.6744689941406	66.44269561767578	-389.7919921875	-402.0981750488281	73.4822998046875	-502.2066345214844	-573.45068359375	147.6441955566406	-409.4574584960938	-317.5783081054688	536.4473876953125	-149.2727813720703	-315.7621154785156	816.16455078125	-107.2606506347656	-430.5762634277344	31.89300155639648	-188.4043579101562	-341.6459350585938	400.7485961914062	-145.3036804199219	-193.6245574951172	39.40654373168945	-225.9467620849609	-253.3805236816406	29.12537384033203	-271.5765380859375	-295.1698608398438	40.39999389648438	-158.5690612792969	-485.1566467285156	36.21072387695312	-241.6356048583984	
